<svg width="45" height="45" viewBox="0 0 45 45" fill="none" xmlns="http://www.w3.org/2000/svg">
<g opacity="0.5">
<path d="M8.70957 4.35486C6.30782 4.35486 4.35474 6.30794 4.35474 8.7097C4.35474 11.1114 6.30782 13.0645 8.70957 13.0645C11.1113 13.0645 13.0644 11.1114 13.0644 8.7097C13.0644 6.30794 11.1113 4.35486 8.70957 4.35486ZM8.70957 11.6129C7.10841 11.6129 5.80635 10.3109 5.80635 8.7097C5.80635 7.10853 7.10841 5.80647 8.70957 5.80647C10.3107 5.80647 11.6128 7.10853 11.6128 8.7097C11.6128 10.3109 10.3107 11.6129 8.70957 11.6129Z" fill="black" fill-opacity="0.7"/>
<path d="M42.8226 23.2258C41.8778 23.2258 41.0793 23.8347 40.7788 24.6774H39.1935V18.871H37.7419V24.6774H36.2903V21.7742H34.8387V24.6774H33.3871V20.3226H31.9355V24.6774H31.495L24.6891 18.3571C25.1456 17.6618 25.4032 16.835 25.4032 15.9677C25.4032 14.778 24.9227 13.6996 24.1469 12.9128L28.6272 7.98387H30.52C30.8854 11.6462 33.9846 14.5161 37.7412 14.5161C41.7434 14.5161 44.9993 11.2603 44.9993 7.25806C44.9993 3.25585 41.7441 0 37.7419 0C33.9846 0 30.8861 2.86991 30.5207 6.53226H27.9857L22.96 12.0609C22.3816 11.777 21.7341 11.6129 21.0484 11.6129C21.0268 11.6129 21.0055 11.6157 20.9846 11.6157L20.1798 7.98387H17.4194V6.73462L15.4734 6.08572C15.4337 5.98436 15.3915 5.88336 15.3472 5.78235L16.2654 3.94693L13.4724 1.15392L11.637 2.07216C11.536 2.02715 11.435 1.98498 11.3336 1.946L10.6847 0H6.73533L6.08678 1.946C5.98507 1.98569 5.88406 2.02786 5.78306 2.07216L3.94764 1.15463L1.15463 3.94764L2.07287 5.78306C2.02786 5.88406 1.98569 5.98507 1.94671 6.08678L0 6.73462V10.684L1.946 11.3326C1.98569 11.4343 2.02786 11.5353 2.07216 11.6363L1.15392 13.4717L3.94693 16.2647L5.78235 15.3465C5.88336 15.3915 5.98436 15.4337 6.08501 15.4734L6.73462 17.4194H10.684L11.3326 15.4734C11.4336 15.4337 11.5346 15.3915 11.6352 15.3465L13.471 16.2647L16.264 13.4717L15.3458 11.6363C15.3908 11.5353 15.433 11.4343 15.4719 11.3326L17.4194 10.6847V9.43548H19.0138L19.556 11.8815C17.8889 12.4925 16.6935 14.0909 16.6935 15.9677C16.6935 17.166 17.1894 18.2727 18.013 19.0772L14.1359 24.6774H13.0645V20.3226H11.6129V24.6774H10.1613V18.871H8.70968V24.6774H7.25806V21.7742H5.80645V24.6774H4.22123C3.9207 23.8347 3.12224 23.2258 2.17742 23.2258C0.977074 23.2258 0 24.2029 0 25.4032C0 26.6036 0.977074 27.5806 2.17742 27.5806C3.12224 27.5806 3.9207 26.9718 4.22123 26.129H14.8964L18.871 20.3878V35.2583C18.7338 35.1173 18.6364 34.9365 18.5995 34.732L17.2989 27.5806H15.3727C14.1001 27.5806 13.0645 28.6162 13.0645 29.8888V30.3524C13.0645 30.4803 13.0755 30.6079 13.0957 30.732L14.4013 38.5666C14.503 39.1762 14.7614 39.7546 15.1477 40.2365L16.9423 42.4799C17.2503 42.8655 17.4194 43.3489 17.4194 43.8408V45H29.0323V43.8408C29.0323 43.3482 29.2013 42.8655 29.5093 42.4799L31.1399 40.4414C31.653 39.801 31.9355 38.9962 31.9355 38.1754V30.4839C31.9355 29.2835 30.9584 28.3065 29.7581 28.3065C29.4714 28.3065 29.1992 28.3653 28.9479 28.4663C28.6977 27.5406 27.8585 26.8548 26.8548 26.8548C26.5993 26.8548 26.3569 26.9069 26.129 26.9884V26.8548C26.129 25.6545 25.152 24.6774 23.9516 24.6774C23.6961 24.6774 23.4537 24.7295 23.2258 24.811V19.7304C23.3906 19.6354 23.5451 19.5294 23.694 19.4146L30.9244 26.129H40.7788C41.0793 26.9718 41.8778 27.5806 42.8226 27.5806C44.0229 27.5806 45 26.6036 45 25.4032C45 24.2029 44.0229 23.2258 42.8226 23.2258V23.2258ZM31.9355 7.25806C31.9355 6.46032 32.0974 5.69907 32.3898 5.00658L33.6642 5.74266C33.4881 6.21507 33.3871 6.7247 33.3871 7.25806C33.3871 7.79143 33.4881 8.30106 33.6642 8.77347L32.3898 9.50955C32.0974 8.81706 31.9355 8.05581 31.9355 7.25806ZM37.7419 4.35484C39.3431 4.35484 40.6452 5.6569 40.6452 7.25806C40.6452 8.85923 39.3431 10.1613 37.7419 10.1613C36.1408 10.1613 34.8387 8.85923 34.8387 7.25806C34.8387 5.6569 36.1408 4.35484 37.7419 4.35484ZM43.5484 7.25806C43.5484 8.05581 43.3864 8.81706 43.0941 9.50955L41.8196 8.77347C41.9958 8.30106 42.0968 7.79143 42.0968 7.25806C42.0968 6.7247 41.9958 6.21507 41.8196 5.74266L43.0941 5.00658C43.3864 5.69907 43.5484 6.46032 43.5484 7.25806ZM33.1238 10.7631L34.3879 10.033C35.0404 10.8205 35.966 11.3705 37.0161 11.5477V13.0145C35.4309 12.8147 34.0463 11.9758 33.1238 10.7631ZM38.4677 13.0145V11.5477C39.5178 11.3705 40.4435 10.8205 41.096 10.033L42.3601 10.7631C41.4376 11.9758 40.053 12.8147 38.4677 13.0145ZM42.3601 3.75307L41.096 4.48313C40.4435 3.69637 39.5178 3.14634 38.4677 2.96844V1.50158C40.053 1.70146 41.4376 2.54032 42.3601 3.75307ZM37.0161 1.50158V2.96844C35.966 3.14563 35.0404 3.69566 34.3879 4.48313L33.1238 3.75307C34.0463 2.54032 35.4309 1.70146 37.0161 1.50158ZM15.9677 9.63785L14.3347 10.1822L14.2206 10.5284C14.1344 10.7907 14.0239 11.0561 13.8913 11.3173L13.7265 11.6434L14.4973 13.1857L13.1843 14.4988L11.6427 13.7279L11.3173 13.892C11.0533 14.0249 10.7875 14.1359 10.5277 14.2216L10.1815 14.3354L9.63785 15.9677H7.7808L7.23645 14.3347L6.8902 14.2206C6.63007 14.1352 6.36392 14.0239 6.10025 13.8913L5.77526 13.7272L4.23363 14.4981L2.92059 13.185L3.69141 11.6427L3.52732 11.3173C3.39548 11.0554 3.28491 10.79 3.19773 10.5284L3.08468 10.1822L1.45161 9.63785V7.7808L3.08468 7.23645L3.19879 6.8902C3.28491 6.62795 3.39548 6.3625 3.52803 6.10096L3.69282 5.77526L2.92059 4.23363L4.23363 2.92059L5.77597 3.69141L6.10202 3.52732C6.36392 3.39548 6.62936 3.28491 6.89091 3.19773L7.23716 3.08397L7.78151 1.45161H9.63855L10.1829 3.08468L10.5292 3.19879C10.7914 3.28491 11.0569 3.39548 11.3184 3.52803L11.6441 3.69282L13.1864 2.92201L14.4995 4.23505L13.7287 5.77739L13.8935 6.10344C14.0256 6.36534 14.1359 6.63114 14.223 6.89233L14.3368 7.23857L15.9699 7.78293V9.63785H15.9677ZM2.17742 26.129C1.77766 26.129 1.45161 25.803 1.45161 25.4032C1.45161 25.0035 1.77766 24.6774 2.17742 24.6774C2.57718 24.6774 2.90323 25.0035 2.90323 25.4032C2.90323 25.803 2.57718 26.129 2.17742 26.129ZM21.0484 13.0645C22.6496 13.0645 23.9516 14.3666 23.9516 15.9677C23.9516 16.7006 23.6745 17.3882 23.2024 17.9116C23.0844 16.8218 22.169 15.9677 21.0484 15.9677C19.9264 15.9677 19.011 16.8236 18.8944 17.9144C18.4216 17.3917 18.1452 16.7038 18.1452 15.9677C18.1452 14.3666 19.4472 13.0645 21.0484 13.0645ZM23.9516 26.129C24.3514 26.129 24.6774 26.4551 24.6774 26.8548V35.5645H26.129V29.0323C26.129 28.6325 26.4551 28.3065 26.8548 28.3065C27.2546 28.3065 27.5806 28.6325 27.5806 29.0323V35.5645H29.0323V30.4839C29.0323 30.0841 29.3583 29.7581 29.7581 29.7581C30.1578 29.7581 30.4839 30.0841 30.4839 30.4839V38.1754C30.4839 38.668 30.3148 39.1507 30.0069 39.5363L28.3763 41.5747C27.9241 42.1397 27.6512 42.8314 27.593 43.5491H18.8586C18.7997 42.8314 18.5268 42.1397 18.0753 41.5747L16.2807 39.3314C16.0489 39.0419 15.8937 38.6956 15.8327 38.3292L14.5271 30.4934C14.5197 30.4463 14.5161 30.3995 14.5161 30.3524V29.8888C14.5161 29.4161 14.8999 29.0323 15.3727 29.0323H16.0875L17.1713 34.9918C17.3853 36.1649 18.4049 37.0161 19.5968 37.0161H20.3226V18.1452C20.3226 17.7454 20.6486 17.4194 21.0484 17.4194C21.4481 17.4194 21.7742 17.7454 21.7742 18.1452V35.5645H23.2258V26.8548C23.2258 26.4551 23.5519 26.129 23.9516 26.129ZM42.8226 26.129C42.4228 26.129 42.0968 25.803 42.0968 25.4032C42.0968 25.0035 42.4228 24.6774 42.8226 24.6774C43.2223 24.6774 43.5484 25.0035 43.5484 25.4032C43.5484 25.803 43.2223 26.129 42.8226 26.129Z" fill="black" fill-opacity="0.7"/>
</g>
</svg>
