<svg width="51" height="45" viewBox="0 0 51 45" fill="none" xmlns="http://www.w3.org/2000/svg">
<g opacity="0.5">
<path d="M34.893 45H0.959325C0.429538 45 0 44.5705 0 44.0407V0.959325C0 0.429538 0.429538 0 0.959325 0H34.893C35.4228 0 35.8524 0.429538 35.8524 0.959325V11.3891L45.3202 1.92129C45.695 1.54667 46.3023 1.54667 46.6769 1.92129L50.5468 5.7912C50.9214 6.16606 50.9214 6.77331 50.5468 7.14793L35.8524 21.8421V44.0407C35.8524 44.5705 35.4228 45 34.893 45ZM1.91865 43.0813H33.9337V23.7637L29.3018 28.3958C29.1786 28.519 29.0239 28.6063 28.8546 28.6486L23.7068 29.9266C23.6303 29.9456 23.5526 29.9549 23.4756 29.9549C23.4747 29.9549 23.474 29.9549 23.473 29.9549C23.2216 29.9549 22.9768 29.8561 22.7945 29.6741C22.5566 29.4362 22.4607 29.091 22.5417 28.7646L23.8198 23.6169C23.8618 23.4476 23.9493 23.2931 24.0726 23.1696L33.9339 13.3085V1.91865H1.91865V43.0813ZM25.6202 24.3373L24.7906 27.6799L28.1308 26.8505L48.5116 6.46969L45.9984 3.95649L35.6128 14.3421C35.5996 14.3573 35.5857 14.3721 35.5715 14.3863L25.6202 24.3373ZM28.7999 39.8127H6.0212C5.49141 39.8127 5.06188 39.3832 5.06188 38.8534C5.06188 38.3236 5.49141 37.894 6.0212 37.894H28.7999C29.3297 37.894 29.7592 38.3236 29.7592 38.8534C29.7592 39.3832 29.3297 39.8127 28.7999 39.8127ZM28.7999 34.3642H6.0212C5.49141 34.3642 5.06188 33.9347 5.06188 33.4049C5.06188 32.8751 5.49141 32.4456 6.0212 32.4456H28.7999C29.3297 32.4456 29.7592 32.8751 29.7592 33.4049C29.7592 33.9347 29.3297 34.3642 28.7999 34.3642ZM20.119 23.467H6.0212C5.49141 23.467 5.06188 23.0375 5.06188 22.5077C5.06188 21.9779 5.49141 21.5483 6.0212 21.5483H20.119C20.6487 21.5483 21.0783 21.9779 21.0783 22.5077C21.0783 23.0375 20.6487 23.467 20.119 23.467ZM25.0755 18.0183H6.0212C5.49141 18.0183 5.06188 17.5887 5.06188 17.0589C5.06188 16.5292 5.49141 16.0996 6.0212 16.0996H25.0755C25.6053 16.0996 26.0349 16.5292 26.0349 17.0589C26.0349 17.5887 25.6053 18.0183 25.0755 18.0183ZM28.7999 7.12131H6.0212C5.49141 7.12131 5.06188 6.69177 5.06188 6.16198C5.06188 5.63219 5.49141 5.20266 6.0212 5.20266H28.7999C29.3297 5.20266 29.7592 5.63219 29.7592 6.16198C29.7592 6.69177 29.3297 7.12131 28.7999 7.12131Z" fill="black" fill-opacity="0.7"/>
</g>
</svg>
