<svg width="45" height="45" viewBox="0 0 45 45" fill="none" xmlns="http://www.w3.org/2000/svg">
<g opacity="0.5">
<path d="M9.75 21C9.15666 21 8.57664 21.1759 8.08329 21.5056C7.58994 21.8352 7.20543 22.3038 6.97836 22.8519C6.7513 23.4001 6.69189 24.0033 6.80765 24.5853C6.9234 25.1672 7.20912 25.7018 7.62868 26.1213C8.04824 26.5409 8.58279 26.8266 9.16473 26.9423C9.74667 27.0581 10.3499 26.9987 10.898 26.7716C11.4462 26.5446 11.9148 26.1601 12.2444 25.6667C12.574 25.1734 12.75 24.5933 12.75 24C12.75 23.2043 12.4339 22.4413 11.8713 21.8787C11.3087 21.3161 10.5456 21 9.75 21ZM9.75 25.5C9.45333 25.5 9.16332 25.412 8.91664 25.2472C8.66997 25.0824 8.47771 24.8481 8.36418 24.574C8.25065 24.2999 8.22094 23.9983 8.27882 23.7074C8.3367 23.4164 8.47956 23.1491 8.68934 22.9393C8.89912 22.7296 9.16639 22.5867 9.45736 22.5288C9.74833 22.4709 10.0499 22.5006 10.324 22.6142C10.5981 22.7277 10.8324 22.92 10.9972 23.1666C11.162 23.4133 11.25 23.7033 11.25 24C11.25 24.3978 11.092 24.7794 10.8107 25.0607C10.5294 25.342 10.1478 25.5 9.75 25.5Z" fill="black" fill-opacity="0.7"/>
<path d="M44.925 24.4147L42 18.573V9.74999C42 9.55108 41.9209 9.36031 41.7803 9.21966C41.6396 9.07901 41.4489 8.99999 41.25 8.99999H39.6532C40.2954 8.38015 40.7682 7.60618 41.0265 6.75184C41.2848 5.8975 41.32 4.99124 41.1288 4.11943C40.9375 3.24762 40.5263 2.4393 39.9341 1.7715C39.3419 1.10369 38.5886 0.598651 37.746 0.3045C37.633 0.265276 37.5123 0.253634 37.3939 0.270545C37.2755 0.287456 37.1629 0.33243 37.0654 0.401714C36.968 0.470999 36.8885 0.562585 36.8336 0.668835C36.7787 0.775084 36.75 0.892915 36.75 1.0125V4.5H35.25V1.0125C35.2499 0.892915 35.2212 0.775084 35.1663 0.668835C35.1115 0.562585 35.032 0.470999 34.9345 0.401714C34.837 0.33243 34.7244 0.287456 34.606 0.270545C34.4876 0.253634 34.3669 0.265276 34.254 0.3045C33.4113 0.598651 32.658 1.10369 32.0658 1.7715C31.4737 2.4393 31.0624 3.24762 30.8712 4.11943C30.6799 4.99124 30.7152 5.8975 30.9734 6.75184C31.2317 7.60618 31.7045 8.38015 32.3467 8.99999H24.75V5.99999H28.5C28.6989 5.99999 28.8896 5.92098 29.0303 5.78032C29.171 5.63967 29.25 5.44891 29.25 5.24999V0.749999C29.25 0.551087 29.171 0.360322 29.0303 0.21967C28.8896 0.0790175 28.6989 0 28.5 0H16.5C16.3011 0 16.1103 0.0790175 15.9697 0.21967C15.829 0.360322 15.75 0.551087 15.75 0.749999V5.24999C15.75 5.44891 15.829 5.63967 15.9697 5.78032C16.1103 5.92098 16.3011 5.99999 16.5 5.99999H20.25V8.99999H8.24999C8.05108 8.99999 7.86031 9.07901 7.71966 9.21966C7.57901 9.36031 7.49999 9.55108 7.49999 9.74999V18H3.75C3.61062 17.9999 3.47399 18.0387 3.35542 18.1119C3.23685 18.1852 3.14105 18.2901 3.07875 18.4147L0.0787503 24.4147C0.0268524 24.5189 -0.000108222 24.6336 3.26482e-07 24.75V44.25C3.26482e-07 44.4489 0.0790179 44.6396 0.21967 44.7803C0.360322 44.9209 0.551087 45 0.75 45H44.25C44.4489 45 44.6396 44.9209 44.7803 44.7803C44.9209 44.6396 45 44.4489 45 44.25V24.75C45.0012 24.6339 44.9756 24.5192 44.925 24.4147ZM43.0365 24H38.25V19.5H40.7865L43.0365 24ZM40.5 18H38.25V10.5H40.5V18ZM33.75 2.25V5.24999C33.75 5.44891 33.829 5.63967 33.9696 5.78032C34.1103 5.92098 34.3011 5.99999 34.5 5.99999H37.5C37.6989 5.99999 37.8896 5.92098 38.0303 5.78032C38.1709 5.63967 38.25 5.44891 38.25 5.24999V2.25C38.7926 2.65666 39.2147 3.20299 39.4712 3.83072C39.7277 4.45845 39.8091 5.14404 39.7065 5.81436C39.604 6.48468 39.3214 7.11459 38.8889 7.63692C38.4565 8.15925 37.8904 8.55441 37.251 8.78024C37.1045 8.83178 36.9777 8.92749 36.888 9.05417C36.7982 9.18085 36.75 9.33225 36.75 9.48749V24H35.25V9.48749C35.2499 9.33225 35.2017 9.18085 35.112 9.05417C35.0222 8.92749 34.8954 8.83178 34.749 8.78024C34.1096 8.55441 33.5434 8.15925 33.111 7.63692C32.6785 7.11459 32.396 6.48468 32.2934 5.81436C32.1909 5.14404 32.2722 4.45845 32.5287 3.83072C32.7852 3.20299 33.2073 2.65666 33.75 2.25V2.25ZM24.75 13.5H33.75V18H24.75V13.5ZM24.75 19.5H33.75V24H24.75V19.5ZM33.75 10.5V12H24.75V10.5H33.75ZM17.25 1.5H27.75V4.5H17.25V1.5ZM23.25 5.99999V24H21.75V5.99999H23.25ZM12 18V13.5H20.25V18H12ZM8.99999 10.5H20.25V12H11.25C11.0511 12 10.8603 12.079 10.7197 12.2197C10.579 12.3603 10.5 12.5511 10.5 12.75V18H8.99999V10.5ZM18 43.5H1.5V24.927L4.2135 19.5H15.2865L18 24.927V43.5ZM16.9635 19.5H20.25V24H19.2135L16.9635 19.5ZM19.5 43.5V25.5H43.5V43.5H19.5Z" fill="black" fill-opacity="0.7"/>
</g>
</svg>
