<svg width="20" height="20" viewBox="0 0 20 20" fill="none" xmlns="http://www.w3.org/2000/svg">
<g clip-path="url(#clip0)">
<path d="M13.0631 8.38595C12.3821 7.84228 12.269 6.84549 12.8115 6.16305L14.716 3.77179C15.0155 3.39576 15.4657 3.17469 15.9448 3.16751C16.4052 3.15987 16.8376 3.35287 17.131 3.69637C19.2536 6.18439 19.3133 9.84967 17.2732 12.4118L13.9882 16.5373C12.8219 18.0026 11.1503 18.879 9.39007 19.0786C8.07194 19.2281 6.70395 18.9977 5.46234 18.3507C5.06126 18.1412 4.77632 17.763 4.68118 17.3125C4.5811 16.8414 4.69549 16.3557 4.99497 15.9802L6.89886 13.588C7.44207 12.9075 8.4388 12.794 9.12177 13.3364L9.94676 13.9933C10.1747 14.1753 10.5068 14.1376 10.6882 13.9092L13.9727 9.78423C14.1537 9.55641 14.116 9.22431 13.8886 9.04276L13.0631 8.38595Z" fill="black" fill-opacity="0.4"/>
</g>
<defs>
<clipPath id="clip0">
<rect width="18" height="18" fill="white" transform="matrix(-0.993629 0.112702 0.112702 0.993629 17.8853 0)"/>
</clipPath>
</defs>
</svg>
