<svg width="17" height="17" viewBox="0 0 17 17" fill="none" xmlns="http://www.w3.org/2000/svg">
<g clip-path="url(#clip0)">
<path d="M1.29056 3.93066C3.48649 5.79037 7.33968 9.06219 8.47218 10.0823C8.62421 10.22 8.78727 10.29 8.95655 10.29C9.12549 10.29 9.28827 10.2207 9.43996 10.0837C10.5734 9.0625 14.4266 5.79037 16.6226 3.93066C16.7593 3.81509 16.7801 3.61197 16.6695 3.47069C16.4136 3.14422 16.0321 2.95703 15.6232 2.95703H2.2899C1.88105 2.95703 1.49952 3.14422 1.24368 3.47072C1.13299 3.61197 1.15384 3.81509 1.29056 3.93066Z" fill="black" fill-opacity="0.4"/>
<path d="M16.7632 4.9383C16.645 4.8833 16.506 4.90249 16.4077 4.98649C13.9725 7.05093 10.8644 9.69712 9.88654 10.5783C9.3377 11.0737 8.57598 11.0737 8.02586 10.5776C6.98354 9.63849 3.49329 6.67137 1.50536 4.98646C1.40639 4.90246 1.26707 4.88393 1.14989 4.93827C1.03207 4.99299 0.956543 5.11083 0.956543 5.24071V13.6235C0.956543 14.3589 1.55451 14.9569 2.28989 14.9569H15.6232C16.3586 14.9569 16.9565 14.3589 16.9565 13.6235V5.24071C16.9565 5.11083 16.881 4.99268 16.7632 4.9383Z" fill="black" fill-opacity="0.4"/>
</g>
<defs>
<clipPath id="clip0">
<rect width="16" height="16" fill="white" transform="translate(0.956543 0.957031)"/>
</clipPath>
</defs>
</svg>
