<svg width="19" height="18" viewBox="0 0 19 18" fill="none" xmlns="http://www.w3.org/2000/svg">
<path d="M9.95631 0C6.64797 0 3.9563 2.69167 3.9563 6.00001C3.9563 6.99318 4.20461 7.9779 4.67665 8.85132L9.6282 17.8066C9.69412 17.926 9.81973 18 9.95631 18C10.0929 18 10.2185 17.926 10.2844 17.8066L15.2378 8.84837C15.708 7.9779 15.9563 6.99314 15.9563 5.99998C15.9563 2.69167 13.2647 0 9.95631 0ZM9.95631 9C8.30214 9 6.95632 7.65418 6.95632 6.00001C6.95632 4.34584 8.30214 3.00002 9.95631 3.00002C11.6105 3.00002 12.9563 4.34584 12.9563 6.00001C12.9563 7.65418 11.6105 9 9.95631 9Z" fill="black" fill-opacity="0.4"/>
</svg>
